<svg xmlns="http://www.w3.org/2000/svg" viewBox="0 0 526 526.26"><defs><style>.cls-1{fill:none;}.cls-2{fill:#fefefe;}.cls-3{fill:#ffa345;}.cls-4{fill:#050505;}.cls-5{fill:#fbcbb9;}.cls-6{fill:#ffd88b;}.cls-7{fill:#1e1e26;}.cls-8{fill:#f38b9a;}</style></defs><g id="Layer_2" data-name="Layer 2"><g id="Layer_2-2" data-name="Layer 2"><circle class="cls-1" cx="263" cy="263" r="263"/></g><g id="Layer_1-2" data-name="Layer 1"><path class="cls-2" d="M.15,293.86c4.47,10.28,4.7,21.54,7.37,32.25,16.46,66,54,117.14,109.23,155.9a11.89,11.89,0,0,0,2.55,1l4.17,3.18a268.38,268.38,0,0,0,62.21,28.59c15.27,4.81,31.34,5.81,46.44,11-75,0-150-.08-225,.15C1.32,526,0,524.65,0,518.81.23,443.83.15,368.85.15,293.86Z"/><path class="cls-3" d="M290.24,525l-57.38,1.26c-15.31-5.44-31.66-6.4-47.18-11.29a268.35,268.35,0,0,1-62.21-28.58,147.16,147.16,0,0,1,33-17.1,19,19,0,0,1,13.44-.24c53.52,16.86,107.45,18.54,161.68,3a16.9,16.9,0,0,1,8.53-.24c17.6,4.11,34.61,9.64,49.38,20.56-25.33,16-53.34,24.45-82.48,30.06C301.49,523.46,295.57,522.77,290.24,525Z"/><path class="cls-4" d="M389.52,492.15c-14.8-10.95-31.85-16.48-49.48-20.59-3.42-.8-6.73-.2-10.1.74-53.68,15.07-107,13.25-160-3.43a19.07,19.07,0,0,0-13.44.23,148,148,0,0,0-33,17.1L119.3,483c9.66-9.6,22-14.33,34.5-18.59,5.95-2,10.59-4.64,11.53-11.39q3.67-7.38,7.36-14.77c1.26-2.52,2.75-5.67,6.05-4.29,8.58,3.59,8.78-2.76,10-7.93,1.74-7.17,3.35-14.37,5-21.55,1.33-5.18,2.28-10.49,4.1-15.49,2.23-6.11,1.81-10.75-3-15.92C184.53,362,177,348.63,174.73,333.82c-1.74-11.54-9.08-15.41-17.51-19.19-12.77-5.72-20.53-16.54-18-30.18,1.78-9.38-.55-16.91-4.09-24.89-3-6.79-5.57-13.8-8.37-20.69-6.78-16.64-8.87-33.65-2.91-50.89,1.68-4.85.11-7-3.76-8.61-5.75-2.38-11.59-4.56-18.78-7.38a52.25,52.25,0,0,1,21.8-5.23c3.75-.09,8.95,4.54,10.9-.3s-4.05-7.59-7.23-10.74c-1.52-1.51-3.54-2.51-5.19-3.91-2.27-1.93,1.05-2.1,1.15-3.31,7.73-1.09,15.51-2,23.09.62,2.84,1,4.73.15,6.71-1.66,11.57-10.56,25.52-17.52,38.8-25.5,15.43-7.63,31.79-12.69,48.22-17.57,17.26-4.12,34.51-8.29,50.78-15.62,13.31-4.52,26-10.3,37.37-18.69,3.61-.35,5.23-5.65,10.55-2.79,10.72,5.76,19.25,12.93,23.21,24.85,3,9,2.73,18.21,2.19,27.46-1.54,9.18-3,18.53-9.7,25.6-3.68,3.86-4,7.36-2.67,12.45,4.76,18.58,9.91,37.36,7.77,56.7-1,8.89-.73,17.06,2.41,25.26,1,4.53,1.8,9.11,3,13.58,8.59,32.07,16.28,64.13,1.63,96.59a113.63,113.63,0,0,1-36.78,43.13c-3.78,2.09-7.77,3.88-11.3,6.34-5.73,4-16,2.56-17.84,9.26-1.62,6,2.28,13.55,4.14,20.32,1.42,5.15.08,13.62,10.49,9.47,2.42-1,4.07,2.29,5.52,4.26q6.88,9.36,13.73,18.73c1.63,2.22,3.18,4.12,6.3,4.93,10.13,2.65,20.12,5.85,30.17,8.84l24.58,13.44C394.13,491.05,391.86,491.66,389.52,492.15ZM205.07,281.94c-12.65,3.11-12.54,3.07-16.83-7.9a61.76,61.76,0,0,0-5.24-9.82c-.85-1.36-3.16-4-4.08-1.65-2.15,5.46-5.62,2.3-8.5,2.06C156,263.44,145,271.91,144.25,285c-.91,15.88,8,25.6,23.73,25.79,2.79,0,5.59-.45,8.38-.45,2.19,0,4.25,2,2.62,3.4-6.45,5.58-1.2,11.17,0,16.07,13.5,53.44,65.14,85,117.07,71.92,52.17-13.1,82.87-64.89,70.15-118.4-4.88-20.56-9.58-41.16-14.81-61.62-4.59-18-7.13-36.66-17-53-2.16-3.59-3.79-5.47-8.62-3.35C286.66,182.61,245,187,202.89,189c-15.63.74-20.48,4.87-21.1,20.53a82.21,82.21,0,0,0,.93,14.86C185.64,245,193.34,263.84,205.07,281.94Zm49.4,195.18c22.08-.05,41-1.8,59.61-5.72,18.08-3.79,17.6-3.51,7.58-18.58-4.87-7.32-9.41-9-18-6.88-36.38,8.92-72.8,8.06-108.94-2-16.77-4.67-16.42-4.46-24,10.65-3.33,6.63-1.66,9,4.82,11C202.23,473.77,229.67,476.73,254.47,477.12Zm-49.28-92.78c-4.45,17-8.35,32.62-12.74,48.1-1.13,4-.41,5.5,3.41,6.53,33.34,8.95,66.9,10.51,100.74,3.29,2.14-.46,5.55,0,4.56-4.08-.72-3-1-6.36-5.56-5.89a52.29,52.29,0,0,1-5.6,0c-20.62-.15-38.88-7.22-52.64-22.24C228.11,400,216.51,393.76,205.19,384.34Z"/><path class="cls-5" d="M205.07,281.94c-11.73-18.1-19.43-36.94-22.35-57.54a82.21,82.21,0,0,1-.93-14.86c.62-15.66,5.47-19.79,21.1-20.53,42.08-2,83.77-6.4,122.91-23.61,4.83-2.12,6.46-.24,8.62,3.35,9.88,16.33,12.42,35,17,53,5.23,20.46,9.93,41.06,14.81,61.62,12.72,53.51-18,105.3-70.15,118.4C244.16,414.81,192.52,383.28,179,329.84c-1.24-4.9-6.49-10.49,0-16.07,1.63-1.41-.43-3.39-2.62-3.4-2.79,0-5.59.48-8.38.45-15.73-.19-24.64-9.91-23.73-25.79.76-13.12,11.73-21.59,26.17-20.4,2.88.24,6.35,3.4,8.5-2.06.92-2.31,3.23.29,4.08,1.65a61.76,61.76,0,0,1,5.24,9.82C192.53,285,192.42,285.05,205.07,281.94Zm62.47,34.81c-4.66-.33-9.32-.63-14-1-9.17-.71-11.91,2.54-9.62,11.49,5.51,21.51,27.37,37.06,49.08,34.91,24.18-2.39,42.58-21.12,43.72-44.49.56-11.58-3-14.41-13.69-10.23C305.17,314.45,287,319,267.54,316.75ZM305.37,239c.2,6.91,5.82,13,12.05,13s11.87-6.19,11.69-13.12-5.56-12.77-12.06-12.8S305.17,231.93,305.37,239Zm-60.21,13.23c-.06-7.15-5.2-12.84-11.73-13-6.68-.16-12,5.47-11.88,12.65.08,6.86,5.61,13.06,11.82,13.25S245.23,259.29,245.16,252.24Zm32,47.34c5.38-.12,9.79-2.16,12.65-6.71,3.05-4.86.89-8.64-2.67-12.4-1.57-1.66-1.71-4.58-2.92-6.67-1.79-3.09,2.09-10.33-3.86-9.19-4.58.88-1.26,7.51-1.12,11.53.07,2,1.27,4.16,2.37,6,5.41,9,5.36,9.51-4.95,11.89-2.51.57-4.38,1.15-4,3.8S275.63,299.12,277.18,299.58ZM165.34,277.85c3-1.94,8.81,1.94,8.45-3.48-.25-3.73-5.43-3.18-8.72-2.91-6.43.52-10.73,4.31-13.41,10-.71,1.5-2,3.51.55,4.71a2.68,2.68,0,0,0,3.86-1.21c5.4-9.15,5.58-.71,7.08,2.24a15.6,15.6,0,0,1,1.28,5.36c.23,2.29.39,4.7,3.46,4.15s2.32-3.27,2.07-5.28A39,39,0,0,0,165.34,277.85Zm152.45-81.17a34.59,34.59,0,0,0-13.17,2.78c-1.61.68-3.85,1.45-2.9,3.88.84,2.18,2.75,2,4.67,1.27,11.71-4.27,22-2.52,30.14,7.47,1.11,1.35,2.59,2,4.05,1,2.18-1.43,1.11-3.29,0-4.79C334.72,200.64,326.76,197.11,317.79,196.68ZM238.1,216.75c-.57-3.37-3.28-3.05-5.68-3.25-11.3-.92-24.12,7.4-28.39,18.57-.66,1.75-2.94,4,.18,5.52,3,1.4,3.53-1.41,4.46-3.24,5.22-10.26,13-16.23,25.08-15.39C235.57,219.09,237.56,219.33,238.1,216.75Z"/><path class="cls-6" d="M254.47,477.12c-24.8-.39-52.24-3.35-79-11.58-6.48-2-8.15-4.34-4.82-11,7.59-15.11,7.24-15.32,24-10.65,36.14,10.08,72.56,10.94,108.94,2,8.63-2.11,13.17-.44,18,6.88,10,15.07,10.5,14.79-7.58,18.58C295.43,475.32,276.55,477.07,254.47,477.12Z"/><path class="cls-5" d="M205.19,384.34c11.32,9.42,22.92,15.63,32.17,25.73,13.76,15,32,22.09,52.64,22.24a52.29,52.29,0,0,0,5.6,0c4.52-.47,4.84,2.91,5.56,5.89,1,4.08-2.42,3.62-4.56,4.08-33.84,7.22-67.4,5.66-100.74-3.29-3.82-1-4.54-2.56-3.41-6.53C196.84,417,200.74,401.34,205.19,384.34Z"/><path class="cls-7" d="M267.54,316.75c19.41,2.29,37.63-2.3,55.52-9.31,10.68-4.18,14.25-1.35,13.69,10.23-1.14,23.37-19.54,42.1-43.72,44.49-21.71,2.15-43.57-13.4-49.08-34.91-2.29-8.95.45-12.2,9.62-11.49C258.22,316.12,262.88,316.42,267.54,316.75Zm27.93,17.9c-10.13-.13-17.78,4.43-23.54,12.51-2.26,3.17-2,5.4,2.18,6.87,8.05,2.85,16.12,4.28,24.54,1.86,7.06-2,15-3.42,18.13-10.91C318.24,341.45,304,334.64,295.47,334.65Z"/><path class="cls-4" d="M305.37,239c-.2-7.08,5.09-12.92,11.68-12.88s11.88,5.74,12.06,12.8-5.37,13.17-11.69,13.12S305.57,245.92,305.37,239Z"/><path class="cls-4" d="M245.16,252.24c.07,7.05-5.45,13.09-11.79,12.9s-11.74-6.39-11.82-13.25c-.08-7.18,5.2-12.81,11.88-12.65C240,239.4,245.1,245.09,245.16,252.24Z"/><path class="cls-7" d="M277.18,299.58c-1.55-.46-4.13.93-4.51-1.75s1.5-3.23,4-3.8c10.31-2.38,10.36-2.85,4.95-11.89-1.1-1.84-2.3-4-2.37-6-.14-4-3.46-10.65,1.12-11.53,5.95-1.14,2.07,6.1,3.86,9.19,1.21,2.09,1.35,5,2.92,6.67,3.56,3.76,5.72,7.54,2.67,12.4C287,297.42,282.56,299.46,277.18,299.58Z"/><path class="cls-7" d="M165.34,277.85A39,39,0,0,1,170,291.4c.25,2,1,4.73-2.07,5.28s-3.23-1.86-3.46-4.15a15.6,15.6,0,0,0-1.28-5.36c-1.5-2.95-1.68-11.39-7.08-2.24a2.68,2.68,0,0,1-3.86,1.21c-2.53-1.2-1.26-3.21-.55-4.71,2.68-5.66,7-9.45,13.41-10,3.29-.27,8.47-.82,8.72,2.91C174.15,279.79,168.39,275.91,165.34,277.85Z"/><path class="cls-7" d="M317.79,196.68c9,.43,16.93,4,22.76,11.66,1.14,1.5,2.21,3.36,0,4.79-1.46,1-2.94.3-4.05-1-8.18-10-18.43-11.74-30.14-7.47-1.92.71-3.83.91-4.67-1.27-1-2.43,1.29-3.2,2.9-3.88A34.59,34.59,0,0,1,317.79,196.68Z"/><path class="cls-4" d="M238.1,216.75c-.54,2.58-2.53,2.34-4.35,2.21-12-.84-19.86,5.13-25.08,15.39-.93,1.83-1.49,4.64-4.46,3.24-3.12-1.48-.84-3.77-.18-5.52,4.27-11.17,17.09-19.49,28.39-18.57C234.82,213.7,237.53,213.38,238.1,216.75Z"/><path class="cls-8" d="M295.48,334.65c8.47,0,22.76,6.8,21.3,10.33-3.09,7.49-11.07,8.88-18.13,10.91-8.42,2.42-16.49,1-24.54-1.86-4.14-1.47-4.44-3.7-2.18-6.87C277.69,339.08,285.34,334.52,295.48,334.65Z"/></g></g></svg>